<?xml version="1.0" encoding="utf-8"?>
<!-- Generator: Adobe Illustrator 26.3.1, SVG Export Plug-In . SVG Version: 6.00 Build 0)  -->
<svg version="1.1" id="图层_1" fill="currentcolor" xmlns="http://www.w3.org/2000/svg" xmlns:xlink="http://www.w3.org/1999/xlink" x="0px" y="0px"
	 viewBox="0 0 14 14" style="enable-background:new 0 0 14 14;" xml:space="preserve">

<path id="形状结合" class="st0" d="M7,0c1,0,2,0.4,2.7,1.1c0.7,0.7,1.1,1.7,1.1,2.7c0,1.4-0.8,2.7-2,3.4c1.9,0.6,3.5,2.1,4.1,4
	l0.3,0c0.4,0,0.7,0.3,0.7,0.7v1.4c0,0.4-0.3,0.7-0.7,0.7h-1.4c-0.4,0-0.7-0.3-0.7-0.7v-1.4c0-0.3,0.1-0.5,0.3-0.6
	c-0.7-1.5-2.1-2.7-3.8-2.9l0,2.1c0.4,0,0.7,0.3,0.7,0.7v1.4c0,0.4-0.3,0.7-0.7,0.7H6.3c-0.4,0-0.7-0.3-0.7-0.7v-1.4
	c0-0.4,0.3-0.7,0.7-0.7l0-2.1c-1.7,0.2-3.2,1.4-3.8,2.9c0.2,0.1,0.3,0.3,0.3,0.6v1.4c0,0.4-0.3,0.7-0.7,0.7H0.7
	C0.3,14,0,13.7,0,13.3v-1.4c0-0.4,0.3-0.7,0.7-0.7l0.3,0c0.7-1.9,2.2-3.4,4.1-4c-1.2-0.7-2-1.9-2-3.4C3.2,1.7,4.9,0,7,0z M7,1.4
	c-1.4,0-2.4,1.1-2.4,2.4S5.6,6.3,7,6.3s2.4-1.1,2.4-2.5S8.4,1.4,7,1.4z"/>
</svg>
