<?xml version="1.0" encoding="utf-8"?>
<!-- Generator: Adobe Illustrator 26.3.1, SVG Export Plug-In . SVG Version: 6.00 Build 0)  -->
<svg version="1.1" id="图层_1" fill="currentcolor" xmlns="http://www.w3.org/2000/svg" xmlns:xlink="http://www.w3.org/1999/xlink" x="0px" y="0px"
	 viewBox="0 0 14 14" style="enable-background:new 0 0 14 14;" xml:space="preserve">

<path id="形状结合" class="st0" d="M11.8,9l1.9,1.9c0.1,0.1,0.2,0.2,0.3,0.3c0.1,0.2,0.1,0.3,0,0.5c0,0.1-0.1,0.3-0.3,0.3
	l-1.9,1.9c-0.3,0.3-0.6,0.3-0.8,0c-0.3-0.3-0.3-0.6,0-0.8l1-1l-5.3,0C6.2,12,6,11.8,6,11.4c0-0.4,0.2-0.6,0.6-0.6l5.3,0l-1-1
	c-0.3-0.3-0.3-0.6,0-0.8S11.5,8.7,11.8,9z M11,0c0.6,0,1,0.4,1,1v5.5c0,0.3-0.3,0.6-0.6,0.6s-0.6-0.3-0.6-0.6V1.3H1.4v11.4h2.1
	c0.2,0,0.4,0.1,0.5,0.3c0.1,0.2,0.1,0.4,0,0.6C3.9,13.9,3.7,14,3.5,14H1c-0.6,0-1-0.4-1-1V1c0-0.6,0.4-1,1-1H11z M9.1,3.4
	c0.3,0.3,0.3,0.6,0,0.8L5.7,7.6C5.5,7.8,5.3,7.9,5.1,7.8C5,7.8,4.9,7.7,4.9,7.6l-2-2c-0.3-0.3-0.3-0.6,0-0.8c0.3-0.3,0.6-0.3,0.8,0
	l1.6,1.6l3-3C8.5,3.1,8.8,3.1,9.1,3.4z"/>
</svg>
