<?xml version="1.0" encoding="utf-8"?>
<!-- Generator: Adobe Illustrator 26.3.1, SVG Export Plug-In . SVG Version: 6.00 Build 0)  -->
<svg version="1.1" id="图层_1" fill="currentcolor" xmlns="http://www.w3.org/2000/svg" xmlns:xlink="http://www.w3.org/1999/xlink" x="0px" y="0px"
	 viewBox="0 0 14 14" style="enable-background:new 0 0 14 14;" xml:space="preserve">

<path id="形状" class="st0" d="M12,1.2c0.5,0,0.8,0.4,0.8,0.9v9.8c0,0.5-0.4,0.9-0.8,0.9H2c-0.5,0-0.8-0.4-0.8-0.9V2.1
	c0-0.5,0.4-0.9,0.8-0.9h2.4c0.2,0,0.4-0.1,0.5-0.3s0.1-0.4,0-0.6S4.6,0,4.4,0H2C0.9,0,0,0.9,0,2.1v9.8C0,13,0.9,14,2,14h10
	c1.1,0,2-0.9,2-2.1V2.1C14,1,13.1,0,12,0H9.6C9.4,0,9.2,0.1,9.1,0.3S9,0.7,9.1,0.9s0.3,0.3,0.5,0.3H12z M6.4,1.2h1.2
	c0.3,0,0.6-0.3,0.6-0.6S7.9,0,7.6,0H6.4C6.2,0,6,0.1,5.9,0.3s-0.1,0.4,0,0.6S6.2,1.2,6.4,1.2z M10.3,4.7c0.3,0,0.6-0.3,0.6-0.6
	s-0.3-0.6-0.6-0.6H3.7c-0.2,0-0.4,0.1-0.5,0.3s-0.1,0.4,0,0.6s0.3,0.3,0.5,0.3H10.3z M10.3,7.6c0.3,0,0.6-0.3,0.6-0.6
	s-0.3-0.6-0.6-0.6H3.7C3.3,6.4,3.1,6.7,3.1,7s0.3,0.6,0.6,0.6H10.3z M10.3,10.5c0.3,0,0.6-0.3,0.6-0.6c0-0.3-0.3-0.6-0.6-0.6H3.7
	c-0.3,0-0.6,0.3-0.6,0.6c0,0.3,0.3,0.6,0.6,0.6H10.3z"/>
</svg>
