<?xml version="1.0" encoding="utf-8"?>
<!-- Generator: Adobe Illustrator 26.3.1, SVG Export Plug-In . SVG Version: 6.00 Build 0)  -->
<svg version="1.1" id="图层_1" fill="currentcolor" xmlns="http://www.w3.org/2000/svg" xmlns:xlink="http://www.w3.org/1999/xlink" x="0px" y="0px"
	 viewBox="0 0 14 14" style="enable-background:new 0 0 14 14;" xml:space="preserve">

<path class="st0" d="M9.7,6.8H4.3c-2.4,0-4.3,2-4.3,4.4v1c0,1,0.8,1.9,1.8,1.9h10.3c1,0,1.8-0.8,1.8-1.9v-1C14,8.8,12.1,6.8,9.7,6.8
	z M12.5,12.2c0,0.3-0.3,0.5-0.6,0.5H2.1c-0.3,0-0.6-0.2-0.6-0.5v-1.5c0-1.4,1.3-2.5,2.9-2.5h5.2c1.6,0,2.9,1.1,2.9,2.5V12.2z"/>
<path class="st0" d="M7.1,6.2c1.7,0,3.1-1.4,3.1-3.1C10.1,1.4,8.8,0,7.1,0S4,1.4,4,3.1S5.4,6.2,7.1,6.2z M7,1.3c1,0,1.8,0.8,1.8,1.8
	S8,4.9,7,4.9S5.2,4.1,5.2,3.1S6,1.3,7,1.3z"/>
</svg>
