<?xml version="1.0" encoding="utf-8"?>
<!-- Generator: Adobe Illustrator 26.3.1, SVG Export Plug-In . SVG Version: 6.00 Build 0)  -->
<svg version="1.1" id="图层_1" fill="currentcolor" xmlns="http://www.w3.org/2000/svg" xmlns:xlink="http://www.w3.org/1999/xlink" x="0px" y="0px"
	 viewBox="0 0 14 14" style="enable-background:new 0 0 14 14;" xml:space="preserve">

<path id="形状" class="st0" d="M7.5,0.1l5.1,2.3c0.4,0.2,0.7,0.6,0.7,1.1v7.1c0,0.5-0.3,0.9-0.7,1.1l-5.1,2.3
	c-0.3,0.1-0.7,0.1-1,0l-5.1-2.3C1,11.4,0.7,11,0.7,10.5V3.5C0.7,3,1,2.6,1.4,2.4l5.1-2.3C6.8,0,7.2,0,7.5,0.1L7.5,0.1z M1.9,4.6v6
	l4.6,2.1v-6L1.9,4.6z M12.2,4.6L7.7,6.5v6l4.4-2V4.6z M7,1.2L2.1,3.4l5,2.1L12,3.4L7,1.2z"/>
</svg>
