<?xml version="1.0" encoding="utf-8"?>
<!-- Generator: Adobe Illustrator 26.3.1, SVG Export Plug-In . SVG Version: 6.00 Build 0)  -->
<svg version="1.1" id="图层_1" fill="currentcolor" xmlns="http://www.w3.org/2000/svg" xmlns:xlink="http://www.w3.org/1999/xlink" x="0px" y="0px"
	 viewBox="0 0 14 14" style="enable-background:new 0 0 14 14;" xml:space="preserve">

<path id="形状" class="st0" d="M7,0c3.9,0,7,3.1,7,7s-3.1,7-7,7s-7-3.1-7-7S3.1,0,7,0z M7,1.5C4,1.5,1.5,4,1.5,7S4,12.5,7,12.5
	S12.5,10,12.5,7S10,1.5,7,1.5z M7,4l3,3l-3,3L4,7L7,4z M5.5,7L7,8.5L8.5,7L7,5.5L5.5,7L5.5,7z"/>
</svg>
