<?xml version="1.0" encoding="utf-8"?>
<!-- Generator: Adobe Illustrator 26.3.1, SVG Export Plug-In . SVG Version: 6.00 Build 0)  -->
<svg version="1.1" id="图层_1" fill="currentcolor" xmlns="http://www.w3.org/2000/svg" xmlns:xlink="http://www.w3.org/1999/xlink" x="0px" y="0px"
	 viewBox="0 0 14 14" style="enable-background:new 0 0 14 14;" xml:space="preserve">

<path id="形状" class="st0" d="M13,8.9v3.8c0,0.3-0.1,0.7-0.4,0.9S12.1,14,11.8,14H1.3c-0.3,0-0.7-0.1-0.9-0.4S0,13.1,0,12.7V1.3
	c0-0.3,0.1-0.7,0.4-0.9S0.9,0,1.3,0h10.5c0.3,0,0.7,0.1,0.9,0.4S13,0.9,13,1.3v3.2h-0.3c0.3,0,0.7,0.1,0.9,0.4
	C13.9,5.1,14,5.4,14,5.7v1.9c0,0.3-0.1,0.7-0.4,0.9c-0.2,0.2-0.6,0.4-0.9,0.4L13,8.9z M10.9,1.5H2.2c-0.4,0-0.6,0.3-0.6,0.6v9.8
	c0,0.4,0.3,0.6,0.6,0.6h8.8c0.4,0,0.6-0.3,0.6-0.6V8.9H8.9C8.6,8.9,8.2,8.8,8,8.5C7.8,8.3,7.6,8,7.6,7.6V5.7c0-0.7,0.6-1.3,1.3-1.3
	h2.6V2.1C11.5,1.7,11.3,1.5,10.9,1.5z M12.7,6.4c0-0.2-0.1-0.3-0.2-0.4c-0.1-0.1-0.3-0.2-0.4-0.2H9.5c-0.2,0-0.3,0.1-0.4,0.2
	C9,6,8.9,6.2,8.9,6.4V7c0,0.2,0.1,0.3,0.2,0.4c0.1,0.1,0.3,0.2,0.4,0.2h2.5c0.4,0,0.6-0.3,0.6-0.6V6.4L12.7,6.4z"/>
</svg>
