<?xml version="1.0" encoding="utf-8"?>
<!-- Generator: Adobe Illustrator 26.3.1, SVG Export Plug-In . SVG Version: 6.00 Build 0)  -->
<svg version="1.1" id="图层_1" fill="currentcolor" xmlns="http://www.w3.org/2000/svg" xmlns:xlink="http://www.w3.org/1999/xlink" x="0px" y="0px"
	 viewBox="0 0 14 14" style="enable-background:new 0 0 14 14;" xml:space="preserve">

<path id="形状" class="st0" d="M7.5,6.5h5.1c0-2.6-1.8-5-5.1-5.1V6.5z M14,6.2L14,8H6V0h1.8C11.2,0.1,13.9,2.8,14,6.2z M5.2,3.4
	c-2,0.4-3.9,2.7-3.9,4.8c0,2.4,2,4.4,4.4,4.4c2.1,0,4.5-1.7,4.9-3.8H12C11.6,11.7,9.1,14,6,14c-3.3,0-6-2.7-6-6c0-3,2.3-5.6,5.2-6
	V3.4z"/>
</svg>
