<?xml version="1.0" encoding="utf-8"?>
<!-- Generator: Adobe Illustrator 26.3.1, SVG Export Plug-In . SVG Version: 6.00 Build 0)  -->
<svg version="1.1" id="图层_1" fill="currentcolor" xmlns="http://www.w3.org/2000/svg" xmlns:xlink="http://www.w3.org/1999/xlink" x="0px" y="0px"
	 viewBox="0 0 14 14" style="enable-background:new 0 0 14 14;" xml:space="preserve">

<path id="形状" class="st0" d="M8.2,14.3H5.8c-0.8,0-1.4-0.6-1.4-1.4v-1c0-0.1-0.1-0.2-0.1-0.2c0,0-0.1,0-0.2,0l-0.8,0.5
	c-0.7,0.4-1.5,0.2-1.9-0.5L0.2,9.7C0,9.3-0.1,8.9,0.1,8.6c0.1-0.4,0.3-0.7,0.6-0.8l0.8-0.5c0.1,0,0.1-0.1,0.1-0.2S1.7,7,1.5,7
	L0.7,6.5C0.4,6.3,0.1,6,0.1,5.7C0,5.3,0,4.9,0.2,4.6l1.2-2.1C1.8,1.9,2.6,1.7,3.3,2l0.8,0.5c0.1,0,0.2,0,0.2,0c0,0,0.1-0.1,0.1-0.2
	v-1C4.4,0.6,5.1,0,5.8,0h2.4c0.8,0,1.4,0.6,1.4,1.4v1c0,0.1,0.1,0.2,0.1,0.2c0,0,0.1,0,0.2,0L10.7,2c0.7-0.4,1.5-0.2,1.9,0.5
	l1.2,2.1c0.4,0.7,0.2,1.5-0.5,1.9L12.5,7c-0.1,0-0.1,0.1-0.1,0.2s0,0.1,0.1,0.2l0.8,0.5C14,8.2,14.2,9,13.8,9.7l-1.2,2.1
	c-0.4,0.7-1.2,0.9-1.9,0.5l-0.8-0.5c-0.1,0-0.2,0-0.2,0c0,0-0.1,0.1-0.1,0.2v1C9.6,13.6,8.9,14.3,8.2,14.3L8.2,14.3z M4.2,10.5
	c0.2,0,0.5,0.1,0.7,0.2c0.4,0.2,0.7,0.7,0.7,1.2v1c0,0.1,0.1,0.2,0.2,0.2h2.4c0.1,0,0.2-0.1,0.2-0.2v-1c0-0.5,0.3-1,0.7-1.2
	c0.4-0.2,1-0.2,1.4,0l0.8,0.5c0.1,0,0.2,0,0.3-0.1l1.2-2.1c0-0.1,0-0.2-0.1-0.3l-0.8-0.5c-0.4-0.2-0.7-0.7-0.7-1.2
	c0-0.5,0.3-1,0.7-1.2l0.8-0.5c0.1,0,0.1-0.2,0.1-0.3l-1.2-2.1C11.6,3,11.4,3,11.3,3l-0.8,0.5c-0.4,0.2-1,0.2-1.4,0
	C8.7,3.3,8.4,2.8,8.4,2.3v-1c0-0.1-0.1-0.2-0.2-0.2H5.8c-0.1,0-0.2,0.1-0.2,0.2v1c0,0.5-0.3,1-0.7,1.2c-0.4,0.2-1,0.2-1.4,0L2.7,3
	C2.6,3,2.5,3,2.4,3.1L1.2,5.2c0,0.1,0,0.1,0,0.2c0,0,0,0.1,0.1,0.1l0.9,0.5c0.4,0.2,0.7,0.7,0.7,1.2c0,0.5-0.3,1-0.7,1.2L1.3,8.8
	c-0.1,0-0.1,0.1-0.1,0.1v0.2l1.2,2.1c0,0.1,0.2,0.1,0.3,0.1l0.8-0.5C3.7,10.6,4,10.5,4.2,10.5L4.2,10.5z M7,9.7
	c-1.4,0-2.6-1.1-2.6-2.6S5.6,4.6,7,4.6s2.6,1.1,2.6,2.6S8.4,9.7,7,9.7z M7,5.7c-0.8,0-1.4,0.6-1.4,1.4S6.2,8.5,7,8.5
	s1.4-0.6,1.4-1.4S7.7,5.7,7,5.7z"/>
</svg>
