<?xml version="1.0" encoding="UTF-8"?>
<svg width="56px" height="56px" viewBox="0 0 56 56" version="1.1" xmlns="http://www.w3.org/2000/svg" xmlns:xlink="http://www.w3.org/1999/xlink">
    <title>avaster@2x</title>
    <defs>
        <rect id="path-1" x="0" y="0" width="56" height="56" rx="15"></rect>
    </defs>
    <g id="控件" stroke="none" stroke-width="1" fill="none" fill-rule="evenodd">
        <g id="avaster">
            <mask id="mask-2" fill="white">
                <use xlink:href="#path-1"></use>
            </mask>
            <use id="蒙版" fill="#B5E0E8" xlink:href="#path-1"></use>
            <g id="1" mask="url(#mask-2)" fill-rule="nonzero">
                <g transform="translate(8.227336, 9.580994)">
                    <path d="M25.6928984,20.9708886 C25.6928984,20.9708886 25.9914922,18.4407714 26.0620391,18.2582792 C25.9417266,18.3474198 25.6015703,18.5278886 25.4834453,18.6232636 C24.7347734,19.2184823 22.7562891,19.4196229 20.7384297,19.3740136 C18.7205703,19.4196229 16.7421406,19.2184823 15.9934688,18.6232636 C15.8732109,18.5278886 15.5351875,18.3474745 15.4127969,18.2582792 C15.4833438,18.4407714 15.7860938,20.9729667 15.7840156,20.9708886 C15.8566406,25.6038495 15.0125391,26.2695604 14.5915547,27.7938104 C15.9333672,30.2036151 17.8806797,32.5428729 19.2224922,34.9527323 C19.5128281,35.4732479 20.1411875,35.5935604 20.5517813,35.973037 L20.5517813,36.1804667 L20.6969766,36.2509589 C20.7093906,36.2281542 20.7259609,36.2073729 20.7405078,36.1845682 L20.7840938,36.2509589 L20.9292344,36.180412 L20.9292344,35.973037 C21.3439844,35.5935057 21.9661094,35.4732479 22.2585781,34.9527323 C23.6003359,32.5429276 25.5477031,30.2036698 26.8895156,27.7938104 C26.4643203,26.2695604 25.6202734,25.6038495 25.6928438,20.9708886 L25.6928984,20.9708886 Z" id="路径" fill="#F5C09D"></path>
                    <path d="M29.6643047,36.8730839 C29.6796538,36.8228198 29.6983439,36.7736374 29.72025,36.7258651 C27.5447813,41.3380995 27.5137188,41.4583573 29.66425,36.8730839 L29.6643047,36.8730839 Z" id="路径" fill="#EEE4D3"></path>
                    <path d="M30.1329766,27.7710057 C29.9857031,27.7710057 29.4527188,27.6548495 29.3034219,27.6527714 C29.1312656,27.7626932 29.4195781,27.5097089 29.3034219,27.6527714 C27.6111719,29.7577479 25.8898281,31.8523339 24.1852188,33.9510761 C23.9943594,34.1874901 23.7392969,33.0531073 23.4717656,32.8892636 C23.2643906,32.7585604 22.4991484,33.5113886 22.1901094,33.5611542 C22.0274974,33.617898 21.8794823,33.7099756 21.7567109,33.8307636 C21.3294922,34.2268651 21.0391563,34.7536151 20.5932891,35.1393807 C20.2199922,35.462912 20.7342734,35.9813495 20.9499609,36.365037 C21.5721406,37.4599901 22.5468359,44.1440057 23.3244922,46.4127714 L29.2453984,46.4127714 L29.2765156,46.2053964 C29.5440469,44.4550682 29.1168281,35.3633261 29.39475,33.6150761 C29.6995781,31.703037 29.9816016,29.7909432 30.3031094,27.8809276 C30.3383281,27.6756307 30.3569766,27.9555761 30.1330313,27.7710057 L30.1329766,27.7710057 Z" id="路径" fill="#E3E3E3"></path>
                    <path d="M20.5745859,35.2534589 C20.4978594,35.1933026 20.3299141,35.1061854 20.2593672,35.0460292 C19.7720469,34.6167323 19.4775547,33.9158026 18.855375,33.5653104 C18.575375,33.5113886 17.9180313,33.3745057 17.7375625,33.4865604 C17.3228125,33.7498807 17.3228125,34.2496698 17.0387109,33.9137245 C15.6492109,32.2193964 14.2929609,30.5084979 12.9034609,28.8120917 C12.4887109,28.2936542 12.1319844,28.2542245 11.5761953,27.7938104 L11.1324063,27.7938104 C10.9250313,27.9618104 10.9664844,28.1712636 10.9955234,28.3641464 C11.1199375,29.2268417 11.2588984,29.5710995 11.3957813,30.4379511 C11.671625,32.1986698 11.9411797,33.9634901 12.2253359,35.7179745 C12.3974375,36.8067479 12.5094375,44.0133573 12.6628906,46.4190057 L19.0503359,46.4190057 C19.4298672,44.8864432 19.8487734,37.1033182 20.2552656,36.4085682 C20.4896016,35.9958417 20.995625,35.5873261 20.5746406,35.2534589 L20.5745859,35.2534589 Z" id="路径" fill="#E3E3E3"></path>
                    <path d="M37.7543359,31.8813729 C34.5855234,28.6897011 27.7832734,26.3587011 27.7066016,26.5204667 C26.3419844,29.3658026 28.6792188,33.866037 27.3021875,36.7072167 C27.1406042,36.9875673 27.1967495,37.3426911 27.4369375,37.5595214 C27.7169375,37.8603026 28.0404688,43.7333573 28.3224922,46.4127714 L41.5079766,46.4127714 C41.3006016,43.9034354 40.0562969,34.2061386 37.7543359,31.8813729 L37.7543359,31.8813729 Z" id="路径" fill="#35658F"></path>
                    <path d="M21.7007109,35.9315839 C21.6098228,35.74947 21.6324596,35.5312224 21.7587891,35.3716386 C22.1735391,34.7992792 22.5758203,34.2082167 22.9823672,33.6254667 C23.1897422,33.5964823 23.2623125,33.2107167 23.1669375,33.1380917 C22.5261094,32.5906151 21.4227891,32.2712948 20.7820156,31.7258417 L20.7114688,31.742412 C20.5829531,31.742412 20.5144844,31.8585682 20.4273672,31.9310839 C19.7678359,32.4723807 18.9134531,32.6010057 18.2560547,33.1464042 C18.6761062,33.8979596 19.1364811,34.6262567 19.6351641,35.3281073 C19.7806901,35.5020379 19.8129887,35.7442455 19.718125,35.9502323 C19.2224922,37.2588495 18.7392188,44.3264979 18.2560547,46.4106932 L23.6065703,46.4106932 C23.1212734,44.3223417 22.1942656,37.2443026 21.7007109,35.9315839 Z" id="路径" fill="#1E507D"></path>
                    <path d="M12.57375,14.3926386 C12.57375,14.3926386 15.7736797,12.6527011 14.4961797,5.12256043 C13.5794961,5.19158416 12.7341873,5.64321875 12.1672578,6.36686512 C10.9271094,7.89527137 10.752875,10.9853339 12.57375,14.3926386 Z M28.61075,14.3926386 C28.61075,14.3926386 25.4108203,12.6527011 26.6883203,5.12256043 C27.6050039,5.19158416 28.4503127,5.64321875 29.0172422,6.36686512 C30.2573906,7.89527137 30.5166094,10.6638807 28.61075,14.3926386 Z" id="形状" fill="#5D1F1D"></path>
                    <path d="M29.9836797,12.7957636 C29.3427969,13.1109823 28.89075,13.7373182 28.61075,14.3926386 C26.7395917,12.0051477 26.0385401,8.90400061 26.7007891,5.94380262 C26.7630234,5.670037 26.8335156,5.36313075 26.688375,5.11424793 C26.5385211,4.92280255 26.3252306,4.79115901 26.0869219,4.74302918 C22.4462251,3.59404451 18.5375909,3.61071638 14.9068281,4.79071668 C14.790357,4.8203935 14.6819639,4.87565493 14.5895313,4.95248231 C14.3821563,5.159912 14.4402344,5.51658387 14.5128047,5.80899793 C15.2353984,8.79289403 14.5269944,11.9431086 12.5965547,14.3304042 C12.2875703,13.7082792 12.0345859,12.7522323 11.3336016,12.7957636 C9.12291406,12.9326464 9.620625,15.6224511 10.1474297,16.6323651 C10.6742344,17.6422792 11.6757813,18.4262792 12.8039844,18.4739667 C12.9405804,18.4627075 13.0771999,18.4953965 13.1939063,18.5672636 C13.2652782,18.6378181 13.3155438,18.7268909 13.3390469,18.8244589 C13.9258984,20.6079276 14.4713516,22.0969589 15.9956016,23.3267714 C17.5198516,24.5565839 19.5564141,25.371537 21.5659609,25.0376698 C23.9446484,24.6436464 26.3647891,23.1318104 27.2172031,20.7862636 C27.4826563,20.0604511 27.3996953,18.9965604 28.1794297,18.5818104 C28.321851,18.519066 28.4741975,18.4818586 28.6295078,18.4718886 C29.7866953,18.2914198 30.7033125,17.4453495 31.2093359,16.4188104 C31.5741043,15.698053 31.734741,14.8912382 31.6738516,14.0857323 C31.5951016,13.1358651 30.6120938,12.4888573 29.9836797,12.7957636 L29.9836797,12.7957636 Z" id="路径" fill="#FCD6BD"></path>
                    <path d="M27.5883672,4.31373231 L27.5883672,4.35524012 C28.2830625,7.64644325 23.9694766,9.12508387 21.4456484,9.30965418 C19.9711094,9.42373231 18.4903906,9.07531825 17.0905547,8.53402137 C16.1164914,8.14832843 15.1759192,7.68290777 14.2784141,7.14249793 C13.7723906,6.8438495 11.6550547,5.40250575 11.2817031,5.11009168 C11.2736804,5.10291576 11.270295,5.09188498 11.272911,5.08144399 C11.275527,5.07100301 11.2837135,5.06287155 11.2941719,5.06032606 C13.2081997,4.66053723 14.977863,3.74883806 16.4145078,2.42241981 C18.3327813,0.62648231 20.0603047,-0.23211144 22.3187344,0.054068247 C24.6455781,0.348560435 27.0553828,1.88943543 27.5883672,4.31373231 L27.5883672,4.31373231 Z" id="路径" fill="#783E2B"></path>
                    <path d="M15.4750313,24.7784511 C15.4376797,26.5806229 16.3045859,28.3516776 17.7376172,29.6686073 C18.5516024,30.3798809 19.4799189,30.9485044 20.4833672,31.3504667 C20.7114688,31.4437636 21.6198281,31.7009589 20.867,32.2753964 C20.2054453,32.7814198 18.5858203,36.5018651 18.5858203,36.5018651 C18.5858203,36.5018651 15.526875,33.7747636 15.1328516,33.2708182 C14.4484922,32.3936307 13.8885469,31.6636073 13.2850703,30.7469901 C12.798509,29.9490463 12.4316593,29.084029 12.1962422,28.1795761 C12.1962422,28.1795761 14.6351406,26.7112714 15.0519688,25.8153807" id="路径" fill="#FFFFFF"></path>
                    <path d="M25.9998047,24.7722167 C26.0371016,26.5743886 25.1951328,28.3516776 23.7704141,29.6685526 C22.9553583,30.3794359 22.0264326,30.9480207 21.0225859,31.3504667 C20.7965078,31.4437636 20.0167734,31.910412 20.7695469,32.4848495 C21.4311016,32.9908729 22.7065234,36.6325136 22.7065234,36.6325136 C22.7065234,36.6325136 25.9831797,33.7726854 26.3772031,33.2687401 C27.0636953,32.3915526 27.6215078,31.6615292 28.2250391,30.744912 C28.9508516,29.6478807 29.1084609,28.1774979 29.1084609,28.1774979 C29.1084609,28.1774979 27.4182891,26.7112714 26.3689453,25.8153807" id="路径" fill="#FFFFFF"></path>
                    <path d="M28.7476328,27.1260214 L26.27975,24.822037 C26.2098074,24.7516189 26.1040309,24.7308953 26.0126867,24.7697141 C25.9213425,24.808533 25.8628478,24.8990676 25.8649426,24.9982948 L25.8981953,46.4128261 L29.9504844,46.4128261 L30.6555703,40.6059979 L28.235375,37.1634198 L32.2482891,34.3513339 L28.7476328,27.1260214 Z" id="路径" fill="#1E507D"></path>
                    <path d="M3.74746094,31.8813729 C6.91627344,28.6897011 13.7184687,26.3587011 13.7951953,26.5204667 C15.1598125,29.3658026 12.8225781,33.866037 14.1975312,36.7072167 C14.3596057,36.987109 14.3043138,37.3421664 14.0648047,37.5595214 C13.7848047,37.8603026 13.4613281,43.7333573 13.1772266,46.4127714 L0,46.4127714 C0.194960937,43.9034354 1.43926563,34.2061386 3.74746094,31.8813729 L3.74746094,31.8813729 Z" id="路径" fill="#35658F"></path>
                    <path d="M12.7873047,27.0969823 L15.2219922,24.8158026 C15.2919291,24.7453441 15.397732,24.7245947 15.4891008,24.7634189 C15.5804696,24.8022432 15.6389726,24.892809 15.6368555,24.9920604 L15.6119141,46.1639432 C15.6119141,46.2277559 15.5865608,46.2889542 15.5414333,46.3340715 C15.4963058,46.3791887 15.4351018,46.4045401 15.3712891,46.4045401 L11.7690234,46.4045401 C11.650835,46.4062571 11.5488893,46.3218819 11.5285078,46.2054511 L10.8565625,40.6972714 C10.850126,40.639434 10.8648728,40.5812241 10.8980703,40.5334276 L13.1191484,37.3604589 C13.1559214,37.3079973 13.1702497,37.2430349 13.1589573,37.1799719 C13.1476649,37.1169088 13.1116846,37.060955 13.0589922,37.0245136 L9.41319531,34.4695136 C9.31593928,34.4017851 9.28249892,34.2733147 9.33439063,34.1667636 L12.7333828,27.1675292 C12.7470938,27.1410418 12.7653443,27.1171644 12.7873047,27.0969823 L12.7873047,27.0969823 Z" id="路径" fill="#1E507D"></path>
                </g>
            </g>
        </g>
    </g>
</svg>